<svg width="117" height="31" viewBox="0 0 117 31" fill="none" xmlns="http://www.w3.org/2000/svg">
<path d="M0.0356445 24.8352C0.0591385 24.2716 0.211849 23.6375 0.493777 22.9329C0.799196 22.2284 1.13986 21.6882 1.51577 21.3125C3.3483 22.2754 4.98113 22.7568 6.41426 22.7568C7.11908 22.7568 7.65946 22.6394 8.03534 22.4045C8.43476 22.1462 8.63444 21.8174 8.63444 21.4182C8.63444 20.6666 8.07059 20.0913 6.94287 19.692L5.00462 18.9875C2.04438 17.9072 0.564259 16.1575 0.564259 13.7386C0.564259 11.9773 1.1751 10.5799 2.39679 9.54658C3.61847 8.51323 5.25131 7.99658 7.29528 7.99658C8.3055 7.99658 9.42151 8.13749 10.6432 8.41931C11.8648 8.70113 12.8868 9.04164 13.7091 9.4409C13.7326 10.075 13.5916 10.7678 13.2862 11.5193C13.0043 12.2709 12.6519 12.7993 12.229 13.1045C10.3025 12.2356 8.68145 11.8011 7.36577 11.8011C6.8489 11.8011 6.4495 11.9186 6.16757 12.1534C5.88564 12.3882 5.74468 12.6936 5.74468 13.0693C5.74468 13.6564 6.23805 14.1379 7.2248 14.5136L9.3745 15.2886C12.4992 16.4394 14.0616 18.3064 14.0616 20.8898C14.0616 22.6277 13.4154 24.0132 12.1233 25.0466C10.8312 26.0799 9.01032 26.5966 6.66095 26.5966C4.31155 26.5966 2.10311 26.0095 0.0356445 24.8352ZM29.6163 10.0398C31.3078 11.7307 32.1536 14.1496 32.1536 17.2966C32.1536 20.42 31.3078 22.8273 29.6163 24.5182C28.2302 25.9038 26.3859 26.5966 24.0834 26.5966C21.7811 26.5966 19.9368 25.9038 18.5506 24.5182C16.859 22.8273 16.0133 20.42 16.0133 17.2966C16.0133 14.1496 16.859 11.7307 18.5506 10.0398C19.9368 8.67767 21.7811 7.99658 24.0834 7.99658C26.3859 7.99658 28.2302 8.67767 29.6163 10.0398ZM21.9337 13.3159C21.5813 14.2553 21.4051 15.5822 21.4051 17.2966C21.4051 19.011 21.5813 20.3379 21.9337 21.2773C22.3097 22.1932 23.0262 22.6511 24.0834 22.6511C25.1407 22.6511 25.8455 22.1932 26.1979 21.2773C26.5739 20.3379 26.7618 19.011 26.7618 17.2966C26.7618 15.5822 26.5739 14.2553 26.1979 13.3159C25.8455 12.3765 25.1407 11.9068 24.0834 11.9068C23.0262 11.9068 22.3097 12.3765 21.9337 13.3159ZM42.0726 22.2284H43.0946C43.3765 22.9799 43.5175 23.708 43.5175 24.4125C43.5175 25.0936 43.4823 25.5868 43.4118 25.892C42.0021 26.1269 40.6512 26.2443 39.3591 26.2443C38.0669 26.2443 37.0919 25.8686 36.4341 25.117C35.7763 24.3655 35.4473 23.1678 35.4473 21.5239V0.387491L35.694 0.1409H37.738C38.7717 0.1409 39.5 0.387491 39.9229 0.880675C40.3693 1.35037 40.5925 2.16059 40.5925 3.31136V20.5727C40.5925 21.6765 41.0859 22.2284 42.0726 22.2284ZM58.9723 10.0398C60.6638 11.7307 61.5096 14.1496 61.5096 17.2966C61.5096 20.42 60.6638 22.8273 58.9723 24.5182C57.5862 25.9038 55.7419 26.5966 53.4395 26.5966C51.1371 26.5966 49.2928 25.9038 47.9066 24.5182C46.215 22.8273 45.3693 20.42 45.3693 17.2966C45.3693 14.1496 46.215 11.7307 47.9066 10.0398C49.2928 8.67767 51.1371 7.99658 53.4395 7.99658C55.7419 7.99658 57.5862 8.67767 58.9723 10.0398ZM51.2898 13.3159C50.9373 14.2553 50.7611 15.5822 50.7611 17.2966C50.7611 19.011 50.9373 20.3379 51.2898 21.2773C51.6657 22.1932 52.3822 22.6511 53.4395 22.6511C54.4967 22.6511 55.2015 22.1932 55.5539 21.2773C55.9299 20.3379 56.1178 19.011 56.1178 17.2966C56.1178 15.5822 55.9299 14.2553 55.5539 13.3159C55.2015 12.3765 54.4967 11.9068 53.4395 11.9068C52.3822 11.9068 51.6657 12.3765 51.2898 13.3159ZM78.1599 18.1773H67.094C67.2114 22.2871 68.762 24.342 71.7461 24.342C73.3904 24.342 75.1052 23.8371 76.8913 22.8273C77.4079 23.2735 77.7131 23.8371 77.8075 24.5182C75.9278 25.8334 73.8013 26.4909 71.4289 26.4909C69.7605 26.4909 68.3979 26.0564 67.3407 25.1875C66.2834 24.3186 65.5434 23.2382 65.1205 21.9466C64.7211 20.6314 64.5214 19.1166 64.5214 17.4023C64.5214 14.7485 65.144 12.5879 66.3892 10.9204C67.6578 9.22954 69.3729 8.38408 71.5346 8.38408C73.6956 8.38408 75.3639 9.1004 76.5388 10.5329C77.7131 11.942 78.3009 13.7386 78.3009 15.9227C78.3009 16.6743 78.2537 17.4257 78.1599 18.1773ZM75.834 15.7818C75.834 14.1614 75.4816 12.8345 74.7768 11.8011C74.072 10.7678 73.0147 10.2511 71.6051 10.2511C70.2187 10.2511 69.138 10.803 68.3627 11.9068C67.5874 12.9871 67.1645 14.4432 67.094 16.275H75.834V15.7818ZM88.2713 26.4909C86.2745 26.4909 84.7592 25.6924 83.7252 24.0954C82.7152 22.4985 82.2098 20.2791 82.2098 17.4375C82.2098 14.5959 82.8674 12.4 84.1833 10.85C85.5225 9.29999 86.9793 8.52499 88.5532 8.52499C90.151 8.52499 91.7249 9.01818 93.2755 10.0045V0.387491L93.4869 0.176128H94.3327C94.8493 0.176128 95.1905 0.305295 95.3547 0.563628C95.5189 0.821958 95.6014 1.24469 95.6014 1.83181V21.2068C95.6014 23.1561 95.9305 24.4477 96.5881 25.0818C96.3534 25.6454 95.9771 26.0564 95.4604 26.3148C94.4032 25.892 93.7336 25.0936 93.4517 23.9193C91.9948 25.6337 90.268 26.4909 88.2713 26.4909ZM88.5532 24.3773C89.399 24.3773 90.2448 24.1307 91.0905 23.6375C91.9596 23.1208 92.6884 22.428 93.2755 21.5591V12.2591C91.7481 11.1788 90.3505 10.6386 89.0818 10.6386C87.8131 10.6386 86.7559 11.2257 85.9101 12.4C85.0643 13.5743 84.6414 15.3121 84.6414 17.6136C84.6414 19.8916 85.0058 21.5943 85.7339 22.7216C86.486 23.8254 87.4255 24.3773 88.5532 24.3773ZM116.69 31H98.8584C98.7879 30.7886 98.7526 30.4716 98.7526 30.0489C98.7526 29.6261 98.7879 29.2739 98.8584 28.992H116.69C116.761 29.2739 116.796 29.6261 116.796 30.0489C116.796 30.4716 116.761 30.7886 116.69 31Z" fill="black"/>
</svg>
